<?xml version="1.0" encoding="UTF-8" standalone="no"?>
<!-- Created with Inkscape (http://www.inkscape.org/) -->

<svg
   xmlns:dc="http://purl.org/dc/elements/1.1/"
   xmlns:cc="http://creativecommons.org/ns#"
   xmlns:rdf="http://www.w3.org/1999/02/22-rdf-syntax-ns#"
   xmlns:svg="http://www.w3.org/2000/svg"
   xmlns="http://www.w3.org/2000/svg"
   xmlns:xlink="http://www.w3.org/1999/xlink"
   xmlns:sodipodi="http://sodipodi.sourceforge.net/DTD/sodipodi-0.dtd"
   xmlns:inkscape="http://www.inkscape.org/namespaces/inkscape"
   width="256"
   height="256"
   id="svg2"
   version="1.1"
   inkscape:version="0.48.4 r9939"
   sodipodi:docname="qt-icon.svg">
  <title
     id="title4018">Logo</title>
  <defs
     id="defs4">
    <linearGradient
       id="linearGradient4006"
       inkscape:collect="always">
      <stop
         id="stop4008"
         offset="0"
         style="stop-color:#08486d;stop-opacity:1" />
      <stop
         id="stop4010"
         offset="1"
         style="stop-color:#bce5ff;stop-opacity:1" />
    </linearGradient>
    <linearGradient
       id="linearGradient3980">
      <stop
         style="stop-color:#faebd6;stop-opacity:1;"
         offset="0"
         id="stop3982" />
      <stop
         id="stop3994"
         offset="0.27431589"
         style="stop-color:#f6d9c1;stop-opacity:1" />
      <stop
         id="stop3992"
         offset="0.47968742"
         style="stop-color:#fdf8e4;stop-opacity:1" />
      <stop
         id="stop3990"
         offset="0.63578653"
         style="stop-color:#fae6c8;stop-opacity:1" />
      <stop
         id="stop3988"
         offset="0.79457289"
         style="stop-color:#fdfbee;stop-opacity:1" />
      <stop
         style="stop-color:#fbf7e6;stop-opacity:1"
         offset="1"
         id="stop3984" />
    </linearGradient>
    <linearGradient
       inkscape:collect="always"
       id="linearGradient3957">
      <stop
         style="stop-color:#08486d;stop-opacity:1"
         offset="0"
         id="stop3959" />
      <stop
         style="stop-color:#bce5ff;stop-opacity:1"
         offset="1"
         id="stop3961" />
    </linearGradient>
    <linearGradient
       id="linearGradient3941">
      <stop
         style="stop-color:#640000;stop-opacity:1"
         offset="0"
         id="stop3943" />
      <stop
         id="stop3951"
         offset="0.3301037"
         style="stop-color:#830e0e;stop-opacity:1" />
      <stop
         id="stop3949"
         offset="0.83025163"
         style="stop-color:#ffeeee;stop-opacity:1" />
      <stop
         style="stop-color:#ffb2b2;stop-opacity:1"
         offset="1"
         id="stop3945" />
    </linearGradient>
    <radialGradient
       inkscape:collect="always"
       xlink:href="#linearGradient3957"
       id="radialGradient3965"
       cx="341.95941"
       cy="646.76099"
       fx="341.95941"
       fy="646.76099"
       r="55.048237"
       gradientTransform="matrix(-2.1869276,-0.03995771,0.02417623,-1.3231912,1075.3325,1503.2362)"
       gradientUnits="userSpaceOnUse" />
    <radialGradient
       inkscape:collect="always"
       xlink:href="#linearGradient4006"
       id="radialGradient3973"
       cx="341.43155"
       cy="632.44543"
       fx="341.43155"
       fy="632.44543"
       r="55.048237"
       gradientTransform="matrix(-0.00301384,1.3665773,-1.9164354,-0.00422651,1554.5015,170.55454)"
       gradientUnits="userSpaceOnUse" />
    <linearGradient
       inkscape:collect="always"
       xlink:href="#linearGradient3980"
       id="linearGradient3986"
       x1="490.27417"
       y1="429.3674"
       x2="494.71146"
       y2="876.25891"
       gradientUnits="userSpaceOnUse"
       gradientTransform="matrix(0.30936076,0,0,0.3094362,-23.223005,744.30904)" />
  </defs>
  <sodipodi:namedview
     id="base"
     pagecolor="#ffffff"
     bordercolor="#666666"
     borderopacity="1.0"
     inkscape:pageopacity="0.0"
     inkscape:pageshadow="2"
     inkscape:zoom="2"
     inkscape:cx="35.288375"
     inkscape:cy="156.709"
     inkscape:document-units="px"
     inkscape:current-layer="layer1"
     showgrid="false"
     borderlayer="true"
     inkscape:window-width="1613"
     inkscape:window-height="906"
     inkscape:window-x="133"
     inkscape:window-y="94"
     inkscape:window-maximized="0"
     inkscape:snap-page="true" />
  <metadata
     id="metadata7">
    <rdf:RDF>
      <cc:Work
         rdf:about="">
        <dc:format>image/svg+xml</dc:format>
        <dc:type
           rdf:resource="http://purl.org/dc/dcmitype/StillImage" />
        <dc:title>Logo</dc:title>
        <dc:creator>
          <cc:Agent>
            <dc:title>Okami</dc:title>
          </cc:Agent>
        </dc:creator>
        <dc:rights>
          <cc:Agent>
            <dc:title>Okami</dc:title>
          </cc:Agent>
        </dc:rights>
        <dc:publisher>
          <cc:Agent>
            <dc:title>Okami</dc:title>
          </cc:Agent>
        </dc:publisher>
        <cc:license
           rdf:resource="http://creativecommons.org/licenses/by-sa/3.0/" />
      </cc:Work>
      <cc:License
         rdf:about="http://creativecommons.org/licenses/by-sa/3.0/">
        <cc:permits
           rdf:resource="http://creativecommons.org/ns#Reproduction" />
        <cc:permits
           rdf:resource="http://creativecommons.org/ns#Distribution" />
        <cc:requires
           rdf:resource="http://creativecommons.org/ns#Notice" />
        <cc:requires
           rdf:resource="http://creativecommons.org/ns#Attribution" />
        <cc:permits
           rdf:resource="http://creativecommons.org/ns#DerivativeWorks" />
        <cc:requires
           rdf:resource="http://creativecommons.org/ns#ShareAlike" />
      </cc:License>
    </rdf:RDF>
  </metadata>
  <g
     inkscape:label="Layer 1"
     inkscape:groupmode="layer"
     id="layer1"
     transform="translate(0,-796.3622)">
    <path
       style="fill:#3d3d3d;fill-opacity:1;stroke:#000000;stroke-width:0.61879694;stroke-linecap:butt;stroke-linejoin:miter;stroke-miterlimit:4;stroke-opacity:1;stroke-dasharray:none"
       d="m 69.089959,1034.4906 -26.250132,-33.4772 -17.500092,-24.28729 -9.406297,-19.036 0.218756,-12.03424 14.000068,-42.88567 39.812699,-51.20025 50.312759,-23.19325 64.31281,31.07022 52.06276,60.82763 5.68753,40.69764 -5.70078,20.67445 -19.18037,33.10976 -13.76655,18.7209 c 14.26484,4.8099 29.83543,5.9919 39.13413,24.6001 l -206.987462,-0.8313 c 5.071473,-10.6888 19.403454,-16.5968 33.250171,-22.7555 z"
       id="path3998"
       inkscape:connector-curvature="0"
       sodipodi:nodetypes="ccccccccccccccccc" />
    <path
       style="fill:#edc88a;fill-opacity:1;stroke:#000000;stroke-width:2;stroke-linecap:butt;stroke-linejoin:miter;stroke-miterlimit:4;stroke-opacity:1;stroke-dasharray:none"
       d="m 59.240888,940.787 c -8.288833,21.83102 -12.402529,54.73599 4.407414,88.0585 -3.146324,-17.8213 -10.642895,-40.57614 4.370342,-77.63359 z"
       id="path3867"
       inkscape:connector-curvature="0"
       sodipodi:nodetypes="cccc" />
    <path
       sodipodi:nodetypes="cccc"
       inkscape:connector-curvature="0"
       id="path3841"
       d="M 76.614355,914.24052 C 64.738872,926.63006 57.362128,980.47951 84.774321,1029.5622 80.042991,1008.089 68.588468,979.60975 97.839875,925.30353 z"
       style="fill:#e8c488;fill-opacity:1;stroke:#000000;stroke-width:2;stroke-linecap:butt;stroke-linejoin:miter;stroke-miterlimit:4;stroke-opacity:1;stroke-dasharray:none" />
    <path
       sodipodi:nodetypes="cccc"
       inkscape:connector-curvature="0"
       id="path3845"
       d="m 83.478091,945.33454 c -10.078502,13.8914 -17.088939,55.66376 18.280159,91.14776 -7.610104,-20.6289 -25.154626,-37.52941 -3.56752,-95.31345 z"
       style="fill:#e8ce91;fill-opacity:1;stroke:#000000;stroke-width:2;stroke-linecap:butt;stroke-linejoin:miter;stroke-miterlimit:4;stroke-opacity:1;stroke-dasharray:none" />
    <path
       style="fill:#fbe8bf;fill-opacity:1;stroke:#000000;stroke-width:2;stroke-linecap:butt;stroke-linejoin:miter;stroke-miterlimit:4;stroke-opacity:1;stroke-dasharray:none"
       d="m 99.995979,936.81754 c -8.540799,23.20226 -27.745677,65.16316 18.432611,99.47376 -9.31293,-22.1808 -15.83427,-52.62074 -9.6314,-92.39745 z"
       id="path3847"
       inkscape:connector-curvature="0"
       sodipodi:nodetypes="cccc" />
    <path
       sodipodi:nodetypes="cccc"
       inkscape:connector-curvature="0"
       id="path3849"
       d="m 175.76759,917.48111 c 13.76085,10.25396 24.20291,61.02179 5.28562,113.96389 1.11493,-21.9603 7.70178,-51.94236 -30.12774,-100.66049 z"
       style="fill:#eabe75;fill-opacity:1;stroke:#000000;stroke-width:2;stroke-linecap:butt;stroke-linejoin:miter;stroke-miterlimit:4;stroke-opacity:1;stroke-dasharray:none" />
    <path
       style="fill:#efc382;fill-opacity:1;stroke:#000000;stroke-width:2;stroke-linecap:butt;stroke-linejoin:miter;stroke-miterlimit:4;stroke-opacity:1;stroke-dasharray:none"
       d="m 152.16779,923.00677 c 13.76084,10.25394 41.83646,56.38024 22.91917,109.32243 1.11494,-21.9603 7.7018,-51.94247 -30.12774,-100.66059 z"
       id="path3851"
       inkscape:connector-curvature="0"
       sodipodi:nodetypes="cccc" />
    <path
       sodipodi:nodetypes="cccc"
       inkscape:connector-curvature="0"
       id="path3853"
       d="m 157.02568,939.02131 c 12.19636,12.07364 33.56504,61.66619 7.4497,111.45129 4.16647,-21.5899 14.87005,-50.36 -15.79572,-103.87988 z"
       style="fill:#edce93;fill-opacity:1;stroke:#000000;stroke-width:2;stroke-linecap:butt;stroke-linejoin:miter;stroke-miterlimit:4;stroke-opacity:1;stroke-dasharray:none" />
    <path
       style="fill:#fbe8bf;fill-opacity:1;stroke:#000000;stroke-width:2;stroke-linecap:butt;stroke-linejoin:miter;stroke-miterlimit:4;stroke-opacity:1;stroke-dasharray:none"
       d="M 92.042698,918.03172 C 81.964205,931.92314 68.914785,984.32438 102.75263,1029.217 95.142522,1008.5881 79.918205,981.9339 101.50531,924.14986 z"
       id="path3843"
       inkscape:connector-curvature="0"
       sodipodi:nodetypes="cccc" />
    <path
       style="fill:#f6cfbe;fill-opacity:1;stroke:#000000;stroke-width:2;stroke-linecap:butt;stroke-linejoin:miter;stroke-miterlimit:4;stroke-opacity:1;stroke-dasharray:none"
       d="m 109.49276,1005.1638 c 2.11143,19.4957 -6.95028,26.8296 -18.222885,26.5354 l 7.329496,23.9156 78.299219,8.6157 7.88416,-27.7442 c -17.92568,-4.8664 -17.28974,-14.1616 -14.84854,-48.81997 z"
       id="path3996"
       inkscape:connector-curvature="0"
       sodipodi:nodetypes="ccccccc" />
    <path
       sodipodi:nodetypes="cccc"
       inkscape:connector-curvature="0"
       id="path3839"
       d="M 65.726728,936.09537 C 53.297739,955.86343 43.862056,982.05101 53.774314,1018.0344 54.202284,999.94228 50.25498,981.41624 72.27749,948.04659 z"
       style="fill:#f8ecc6;fill-opacity:1;stroke:#000000;stroke-width:2;stroke-linecap:butt;stroke-linejoin:miter;stroke-miterlimit:4;stroke-opacity:1;stroke-dasharray:none" />
    <path
       sodipodi:nodetypes="cccc"
       inkscape:connector-curvature="0"
       id="path3871"
       d="m 58.606862,937.67967 c -6.505298,22.42749 -6.02042,67.30973 13.4163,99.17103 -4.305069,-19.3663 -11.184486,-60.50881 -0.109401,-92.29979 z"
       style="fill:#f4efc6;fill-opacity:1;stroke:#000000;stroke-width:2;stroke-linecap:butt;stroke-linejoin:miter;stroke-miterlimit:4;stroke-opacity:1;stroke-dasharray:none" />
    <path
       sodipodi:nodetypes="cccc"
       inkscape:connector-curvature="0"
       id="path4000"
       d="m 89.287846,884.53635 c -15.878282,6.50801 -54.542063,44.19944 -49.384777,100.18417 4.381102,-21.54743 5.457127,-52.22602 54.212772,-90.00107 z"
       style="fill:#f2ce8f;fill-opacity:1;stroke:#000000;stroke-width:2;stroke-linecap:butt;stroke-linejoin:miter;stroke-miterlimit:4;stroke-opacity:1;stroke-dasharray:none" />
    <path
       style="fill:url(#linearGradient3986);fill-opacity:1;stroke:#000000;stroke-width:2;stroke-linecap:butt;stroke-linejoin:miter;stroke-miterlimit:4;stroke-opacity:1;stroke-dasharray:none"
       d="m 64.605635,939.09206 c 3.379292,16.03625 9.78037,38.58618 18.42994,49.16217 16.058906,19.63557 36.286145,28.24547 45.904175,28.09987 14.43433,-0.2186 54.94985,-28.06949 63.34665,-54.25726 9.52533,-29.70737 3.65059,-50.81011 6.7884,-75.66815 L 71.79494,877.14561 58.7576,934.83335 z"
       id="path3863"
       inkscape:connector-curvature="0"
       sodipodi:nodetypes="cssscccc" />
    <path
       style="fill:#f6dcb1;fill-opacity:1;stroke:#000000;stroke-width:2;stroke-linecap:butt;stroke-linejoin:miter;stroke-miterlimit:4;stroke-opacity:1;stroke-dasharray:none"
       d="m 176.15305,899.32504 c 15.70697,8.05786 59.43888,67.58392 45.64233,101.94446 1.02467,-13.42236 -1.80817,-34.16435 -50.84398,-91.94715 z"
       id="path3857"
       inkscape:connector-curvature="0"
       sodipodi:nodetypes="cccc" />
    <path
       style="fill:#ecd5ab;fill-opacity:1;stroke:#000000;stroke-width:2;stroke-linecap:butt;stroke-linejoin:miter;stroke-miterlimit:4;stroke-opacity:1;stroke-dasharray:none"
       d="m 75.330492,848.19121 37.123288,52.82518 83.08546,24.53387 -1.10485,-74.92777 -91.26143,-19.89232 z"
       id="path3869"
       inkscape:connector-curvature="0" />
    <path
       sodipodi:nodetypes="cccc"
       inkscape:connector-curvature="0"
       id="path3855"
       d="m 177.82537,854.1199 c 53.03642,24.80614 52.69064,101.9874 23.52534,140.38721 5.92159,-9.88754 26.58595,-85.22546 -33.44492,-139.60644 z"
       style="fill:#dbb779;fill-opacity:1;stroke:#000000;stroke-width:2;stroke-linecap:butt;stroke-linejoin:miter;stroke-miterlimit:4;stroke-opacity:1;stroke-dasharray:none" />
    <path
       sodipodi:nodetypes="cccc"
       inkscape:connector-curvature="0"
       id="path3859"
       d="m 200.97408,919.82409 c 10.31682,13.71526 28.42521,64.78928 -4.63255,110.25961 7.25283,-20.7573 22.01473,-47.6704 -0.56676,-105.07298 z"
       style="fill:#f0dab3;fill-opacity:1;stroke:#000000;stroke-width:2;stroke-linecap:butt;stroke-linejoin:miter;stroke-miterlimit:4;stroke-opacity:1;stroke-dasharray:none" />
    <path
       sodipodi:nodetypes="cccc"
       inkscape:connector-curvature="0"
       id="path3803"
       d="M 70.794127,844.49949 C 26.451925,871.243 41.148181,989.04813 76.225571,1018.6186 66.524402,998.66308 47.437578,954.80688 90.060974,870.70063 z"
       style="fill:#f2ce85;fill-opacity:1;stroke:#000000;stroke-width:2;stroke-linecap:butt;stroke-linejoin:miter;stroke-miterlimit:4;stroke-opacity:1;stroke-dasharray:none" />
    <path
       style="fill:#ffffff;stroke:none"
       d="m 106.46514,943.41475 c 0,8.89053 -7.555225,16.09775 -16.87509,16.09775 -9.319845,0 -14.941128,-7.42021 -16.875086,-16.09775 -2.73061,-12.25213 6.714512,-17.13276 16.875086,-16.09778 9.271906,0.94448 16.87509,7.20722 16.87509,16.09778 z"
       id="path3774"
       inkscape:connector-curvature="0"
       sodipodi:nodetypes="sssss" />
    <path
       sodipodi:nodetypes="cccc"
       inkscape:connector-curvature="0"
       id="path3801"
       d="M 61.722321,844.98011 C 39.76285,910.45738 50.945942,938.90017 83.706755,957.7828 77.101255,949.66956 48.674009,910.88379 76.51261,847.68173 z"
       style="fill:#f8e2b0;fill-opacity:1;stroke:#000000;stroke-width:2;stroke-linecap:butt;stroke-linejoin:miter;stroke-miterlimit:4;stroke-opacity:1;stroke-dasharray:none" />
    <path
       style="fill:#ffffff;stroke:none"
       d="m 176.25456,942.13937 c -2.31455,8.31534 -8.59431,14.86307 -17.91416,14.86307 -9.31985,0 -16.87509,-6.99728 -16.87509,-15.62887 0,-8.6316 7.63059,-14.44584 16.87509,-15.6289 11.68748,-1.49569 20.62708,6.6481 17.91416,16.3947 z"
       id="path3776"
       inkscape:connector-curvature="0"
       sodipodi:nodetypes="sssss" />
    <path
       sodipodi:nodetypes="cccc"
       inkscape:connector-curvature="0"
       id="path3788"
       d="m 76.214378,850.18045 c 5.949022,21.40659 18.927821,73.91032 68.280332,82.66366 -9.27521,-3.8142 -39.5315,-30.3678 -54.580068,-91.72573 z"
       style="fill:#fdeec8;fill-opacity:1;stroke:#000000;stroke-width:2;stroke-linecap:butt;stroke-linejoin:miter;stroke-miterlimit:4;stroke-opacity:1;stroke-dasharray:none" />
    <path
       style="fill:#fce6bd;fill-opacity:1;stroke:#000000;stroke-width:2;stroke-linecap:butt;stroke-linejoin:miter;stroke-miterlimit:4;stroke-opacity:1;stroke-dasharray:none"
       d="m 196.73342,917.62494 c 10.52627,14.13426 25.25782,86.20666 -8.78882,111.35376 7.25283,-20.7574 22.01472,-47.67053 -0.56676,-105.07311 z"
       id="path3861"
       inkscape:connector-curvature="0"
       sodipodi:nodetypes="cccc" />
    <path
       style="fill:#fddba3;fill-opacity:1;stroke:#000000;stroke-width:2;stroke-linecap:butt;stroke-linejoin:miter;stroke-miterlimit:4;stroke-opacity:1;stroke-dasharray:none"
       d="m 160.49599,888.00074 c 15.72672,3.13073 62.84562,69.91078 36.91911,126.23756 0.55313,-22.44272 4.81088,-67.96133 -34.23346,-117.98317 z"
       id="path3837"
       inkscape:connector-curvature="0"
       sodipodi:nodetypes="cccc" />
    <path
       style="fill:#eed7a5;fill-opacity:1;stroke:#000000;stroke-width:2;stroke-linecap:butt;stroke-linejoin:miter;stroke-miterlimit:4;stroke-opacity:1;stroke-dasharray:none"
       d="m 191.79043,856.21387 c 32.88656,44.58906 17.99634,151.07183 -19.35269,172.57183 9.81662,-19.9843 39.15553,-95.91111 2.95848,-168.03123 z"
       id="path3809"
       inkscape:connector-curvature="0"
       sodipodi:nodetypes="cccc" />
    <path
       sodipodi:nodetypes="cccc"
       inkscape:connector-curvature="0"
       id="path3807"
       d="m 94.113116,834.26658 c 58.390214,48.35697 54.574774,96.87227 111.811814,93.93598 -36.86832,-19.96418 -25.57873,-53.8286 -88.03523,-98.71013 z"
       style="fill:#f1d099;fill-opacity:1;stroke:#000000;stroke-width:2;stroke-linecap:butt;stroke-linejoin:miter;stroke-miterlimit:4;stroke-opacity:1;stroke-dasharray:none" />
    <path
       sodipodi:nodetypes="cccc"
       inkscape:connector-curvature="0"
       id="path3835"
       d="m 78.203129,850.62249 c 6.580399,15.91912 55.692281,65.75613 110.044051,56.14057 -21.74576,-5.55655 -62.33888,-9.84244 -99.879348,-61.00313 z"
       style="fill:#f2bf88;fill-opacity:1;stroke:#000000;stroke-width:2;stroke-linecap:butt;stroke-linejoin:miter;stroke-miterlimit:4;stroke-opacity:1;stroke-dasharray:none" />
    <path
       style="fill:#f2ce8f;fill-opacity:1;stroke:#000000;stroke-width:2;stroke-linecap:butt;stroke-linejoin:miter;stroke-miterlimit:4;stroke-opacity:1;stroke-dasharray:none"
       d="m 87.042004,845.31788 c 6.558502,15.86069 44.367426,54.41 100.321296,49.06773 -21.55646,-4.31143 -52.23094,-5.28701 -90.156574,-53.93031 z"
       id="path3784"
       inkscape:connector-curvature="0"
       sodipodi:nodetypes="cccc" />
    <path
       style="fill:#f7e9c3;fill-opacity:1;stroke:#000000;stroke-width:2;stroke-linecap:butt;stroke-linejoin:miter;stroke-miterlimit:4;stroke-opacity:1;stroke-dasharray:none"
       d="m 71.132026,854.15891 c 8.763118,57.90291 82.863854,79.4312 127.942774,62.32929 -11.15753,2.88006 -81.97616,0.93464 -117.115147,-72.05443 z"
       id="path3786"
       inkscape:connector-curvature="0"
       sodipodi:nodetypes="cccc" />
    <path
       style="fill:#5d5d5d;fill-opacity:1;stroke:#000000;stroke-width:2;stroke-linecap:butt;stroke-linejoin:miter;stroke-miterlimit:4;stroke-opacity:1;stroke-dasharray:none"
       d="m 177.86149,1061.2601 c 20.74097,-33.1585 62.90558,-71.30974 61.4302,-103.44005 -2.36885,-51.58847 -90.75951,-120.69899 -123.28013,-117.09009 -53.86657,5.97769 -95.934587,75.38673 -97.691839,113.12082 -0.787137,16.90249 45.457172,73.50392 76.190918,102.88162 l -5.218304,0.6252 C 56.675433,1026.3169 14.630347,972.60256 14.061134,953.64547 13.481586,934.34412 24.336161,904.16221 34.671652,881.13978 18.131129,867.34068 -0.5963251,855.03772 -7.72356,830.75048 c 15.3531301,-8.05588 74.013018,-1.70803 89.035998,-5.75127 5.231704,-1.40805 25.738252,-15.74237 47.162692,-15.93132 22.42261,-0.19777 33.58569,5.80098 51.56467,11.11778 15.41839,4.55956 35.75964,-26.99436 87.27281,-29.79582 -2.32641,18.12288 -21.63198,60.47217 -31.40022,81.88207 7.40366,26.42098 11.08841,61.34064 9.82541,86.24911 -1.20903,23.84405 -35.96114,76.33617 -62.13104,104.06527 z"
       id="path2996"
       inkscape:connector-curvature="0"
       sodipodi:nodetypes="csssccsccsssccscc" />
    <path
       style="fill:none;stroke:#000000;stroke-width:2;stroke-linecap:butt;stroke-linejoin:miter;stroke-miterlimit:4;stroke-opacity:1;stroke-dasharray:none"
       d="m 236.38766,874.01304 c -3.68185,-4.1994 -8.12779,-8.52504 -12.65631,-15.55073"
       id="path3766"
       inkscape:connector-curvature="0"
       sodipodi:nodetypes="cc" />
    <path
       style="fill:none;stroke:#000000;stroke-width:2;stroke-linecap:butt;stroke-linejoin:miter;stroke-miterlimit:4;stroke-opacity:1;stroke-dasharray:none"
       d="m 175.87274,818.68425 c 9.44408,5.19411 17.47072,10.38823 24.85935,15.58233"
       id="path3768"
       inkscape:connector-curvature="0"
       sodipodi:nodetypes="cc" />
    <path
       style="fill:none;stroke:#000000;stroke-width:2;stroke-linecap:butt;stroke-linejoin:miter;stroke-miterlimit:4;stroke-opacity:1;stroke-dasharray:none"
       d="m 83.064519,824.32042 c -10.796956,6.41766 -19.962491,13.26535 -26.868034,20.46255"
       id="path3770"
       inkscape:connector-curvature="0"
       sodipodi:nodetypes="cc" />
    <path
       style="fill:none;stroke:#000000;stroke-width:2;stroke-linecap:butt;stroke-linejoin:miter;stroke-miterlimit:4;stroke-opacity:1;stroke-dasharray:none"
       d="m 34.746032,881.20234 c 2.997609,-7.49493 5.542617,-14.66448 15.000077,-26.80356"
       id="path3772"
       inkscape:connector-curvature="0"
       sodipodi:nodetypes="cc" />
    <path
       style="fill:#000000;stroke:#000000;stroke-width:0.46106613px;stroke-linecap:butt;stroke-linejoin:miter;stroke-opacity:1"
       d="m 124.45257,962.78283 c -0.64029,1.10465 -2.06215,1.91604 0,4.03477 1.03395,-1.65532 0.74838,-2.9145 0,-4.03477 z"
       id="path3873"
       inkscape:connector-curvature="0"
       sodipodi:nodetypes="ccc" />
    <path
       sodipodi:type="arc"
       style="fill:url(#radialGradient3965);fill-opacity:1;stroke:#000000;stroke-width:7.75562662000000010;stroke-miterlimit:4;stroke-opacity:1;stroke-dasharray:none"
       id="path3898"
       sodipodi:cx="341.43155"
       sodipodi:cy="660.08368"
       sodipodi:rx="54.548237"
       sodipodi:ry="50.507626"
       d="m 395.97979,660.08368 a 54.548237,50.507626 0 1 1 -109.09648,0 54.548237,50.507626 0 1 1 109.09648,0 z"
       transform="matrix(0.25784585,0,0,0.25790874,68.270748,769.7508)" />
    <path
       transform="matrix(0.2647949,0,0,0.2648595,0.439674,766.83924)"
       d="m 395.97979,660.08368 a 54.548237,50.507626 0 1 1 -109.09648,0 54.548237,50.507626 0 1 1 109.09648,0 z"
       sodipodi:ry="50.507626"
       sodipodi:rx="54.548237"
       sodipodi:cy="660.08368"
       sodipodi:cx="341.43155"
       id="path3900"
       style="fill:url(#radialGradient3973);fill-opacity:1;stroke:#000000;stroke-width:7.55209439999999880;stroke-miterlimit:4;stroke-opacity:1;stroke-dasharray:none"
       sodipodi:type="arc" />
    <path
       style="font-size:medium;font-style:normal;font-variant:normal;font-weight:normal;font-stretch:normal;text-indent:0;text-align:start;text-decoration:none;line-height:normal;letter-spacing:normal;word-spacing:normal;text-transform:none;direction:ltr;block-progression:tb;writing-mode:lr-tb;text-anchor:start;baseline-shift:baseline;color:#000000;fill:#000000;fill-opacity:1;stroke:none;stroke-width:4;marker:none;visibility:visible;display:inline;overflow:visible;enable-background:accumulate;font-family:Sans;-inkscape-font-specification:Sans"
       d="m 171.31541,951.6668 c 8.21046,-8.51608 8.0997,-19.7649 3.68886,-23.95935 -6.9425,-6.60195 -24.92889,-4.68995 -32.60075,5.05341 11.71322,-9.73544 24.00154,-7.89594 29.25213,-2.68039 4.67751,4.64636 5.95358,11.35591 -0.34024,21.58633 z"
       id="path3902"
       inkscape:connector-curvature="0"
       sodipodi:nodetypes="cscsc" />
    <path
       style="fill:#000000;fill-opacity:1;stroke:none"
       d="m 181.39872,928.72502 c -0.27779,1.6929 -1.95813,3.03538 -5.14139,2.50913 1.35233,0.72937 2.93058,1.3766 5.73592,-0.10981 -0.69741,2.05654 -2.54893,2.61699 -5.12859,2.81657 1.63311,0.77284 4.05877,1.06095 5.68397,-0.16412 -0.61975,2.45065 -3.6018,2.59561 -5.32049,2.23223 l -1.81711,-7.34636 c 2.02277,1.56835 3.63093,1.43314 5.98769,0.0623 z"
       id="path3915"
       inkscape:connector-curvature="0"
       sodipodi:nodetypes="cccccccc" />
    <path
       sodipodi:nodetypes="cscsc"
       inkscape:connector-curvature="0"
       id="path3925"
       d="m 76.999677,953.52341 c -8.210464,-8.51606 -8.224701,-19.6399 -3.813871,-23.83435 6.94252,-6.60194 24.428905,-4.81495 32.100764,4.92841 -11.713225,-9.73543 -23.751542,-7.39595 -29.002123,-2.18038 -4.677525,4.64635 -5.57858,10.85591 0.71523,21.08632 z"
       style="font-size:medium;font-style:normal;font-variant:normal;font-weight:normal;font-stretch:normal;text-indent:0;text-align:start;text-decoration:none;line-height:normal;letter-spacing:normal;word-spacing:normal;text-transform:none;direction:ltr;block-progression:tb;writing-mode:lr-tb;text-anchor:start;baseline-shift:baseline;color:#000000;fill:#000000;fill-opacity:1;stroke:none;stroke-width:4;marker:none;visibility:visible;display:inline;overflow:visible;enable-background:accumulate;font-family:Sans;-inkscape-font-specification:Sans" />
    <path
       sodipodi:nodetypes="cccccccc"
       inkscape:connector-curvature="0"
       id="path3927"
       d="m 67.49704,930.70457 c 0.268513,1.63641 1.892819,2.93413 4.969914,2.42543 -1.307238,0.70505 -2.832847,1.33068 -5.544598,-0.10615 0.674132,1.98795 2.463905,2.5297 4.957539,2.72264 -1.578644,0.74704 -3.923398,1.02555 -5.494392,-0.15865 0.599068,2.36891 3.481642,2.50904 5.143018,2.15777 l 1.756496,-7.10134 c -1.955304,1.51605 -3.509798,1.38534 -5.787977,0.0602 z"
       style="fill:#000000;fill-opacity:1;stroke:none" />
    <path
       style="fill:#000000;fill-opacity:1;stroke:none"
       d="m 106.78358,932.93827 c -4.3869,-5.0763 -8.971623,-9.11009 -18.325076,-9.02933 6.674598,1.54305 12.988856,4.29699 18.325076,9.02933 z"
       id="path3929"
       inkscape:connector-curvature="0"
       sodipodi:nodetypes="ccc" />
    <path
       sodipodi:nodetypes="ccc"
       inkscape:connector-curvature="0"
       id="path3931"
       d="m 140.87788,931.67569 c 3.91562,-4.95784 8.04204,-9.21854 18.04935,-9.68006 -6.63446,1.77663 -12.86604,4.7541 -18.04935,9.68006 z"
       style="fill:#000000;fill-opacity:1;stroke:none" />
    <path
       style="fill:#000000;fill-opacity:1;stroke:none"
       d="m 72.214045,912.31027 c 3.755235,-1.66788 11.243611,-1.96035 16.54311,-1.58451 5.087987,0.36084 9.936925,1.33771 15.077145,3.63771 -5.865232,-0.61053 -10.306482,-0.76714 -15.276539,-1.1044 -5.433942,-0.36873 -11.113958,-0.53078 -16.343716,-0.9488 z"
       id="path3933"
       inkscape:connector-curvature="0"
       sodipodi:nodetypes="cscsc" />
    <path
       sodipodi:nodetypes="cscsc"
       inkscape:connector-curvature="0"
       id="path3935"
       d="m 143.9596,913.43272 c 4.31813,-2.02834 9.86604,-3.51206 14.89373,-4.07616 5.32551,-0.59751 10.13597,-0.32634 16.18137,0.8135 -5.34893,0.19099 -10.56176,0.87356 -15.65025,1.40726 -5.27067,0.55281 -10.40794,0.96867 -15.42485,1.8554 z"
       style="fill:#000000;fill-opacity:1;stroke:none" />
    <path
       sodipodi:type="arc"
       style="fill:#000000;fill-opacity:1;stroke:none"
       id="path3937"
       sodipodi:cx="341.43155"
       sodipodi:cy="660.08368"
       sodipodi:rx="12.309767"
       sodipodi:ry="50.507626"
       d="m 353.74132,660.08368 a 12.309767,50.507626 0 1 1 -24.61954,0 12.309767,50.507626 0 1 1 24.61954,0 z"
       transform="matrix(0.14652758,0,0,0.14656334,40.819869,844.92461)" />
    <path
       transform="matrix(0.14564353,0,0,0.14567906,106.58017,843.83179)"
       d="m 353.48493,660.08368 a 12.053377,50.507626 0 1 1 -24.10676,0 12.053377,50.507626 0 1 1 24.10676,0 z"
       sodipodi:ry="50.507626"
       sodipodi:rx="12.053377"
       sodipodi:cy="660.08368"
       sodipodi:cx="341.43155"
       id="path3939"
       style="fill:#000000;fill-opacity:1;stroke:none"
       sodipodi:type="arc" />
    <path
       style="fill:#e4a5a5;fill-opacity:1;stroke:#000000;stroke-width:2;stroke-linecap:butt;stroke-miterlimit:4;stroke-opacity:1;stroke-dasharray:none"
       d="m 137.35533,998.92424 c 0,3.90766 -4.69922,6.09626 -9.97272,6.09626 -5.27348,0 -10.50084,-2.2395 -10.50084,-6.14707 0,-3.9076 5.11798,-7.34723 10.39146,-7.34723 5.2735,0 10.0821,3.49045 10.0821,7.39804 z"
       id="path3975"
       inkscape:connector-curvature="0"
       sodipodi:nodetypes="sssss" />
    <path
       style="fill:#ffffff;stroke:#000000;stroke-width:0.61879694;stroke-linecap:butt;stroke-linejoin:miter;stroke-miterlimit:4;stroke-opacity:1;stroke-dasharray:none"
       d="m 120.27756,994.32934 2.25345,2.25514 0.007,-3.41177 c -0.99321,0.2547 -1.66412,0.74283 -2.25977,1.15663 z"
       id="path3978"
       inkscape:connector-curvature="0"
       sodipodi:nodetypes="cccc" />
    <path
       style="fill:none;stroke:#000000;stroke-width:2;stroke-linecap:butt;stroke-linejoin:miter;stroke-miterlimit:4;stroke-opacity:1;stroke-dasharray:none"
       d="m 168.94472,1018.7867 c 0.0776,6.3653 0.66418,12.4114 1.33744,17.6302"
       id="path4002"
       inkscape:connector-curvature="0"
       sodipodi:nodetypes="cc" />
    <path
       style="fill:none;stroke:#000000;stroke-width:2;stroke-linecap:butt;stroke-linejoin:miter;stroke-miterlimit:4;stroke-opacity:1;stroke-dasharray:none"
       d="m 184.53584,1037.1709 1.47658,-5.142"
       id="path4004"
       inkscape:connector-curvature="0"
       sodipodi:nodetypes="cc" />
    <path
       style="fill:none;stroke:#000000;stroke-width:2;stroke-linecap:butt;stroke-linejoin:miter;stroke-miterlimit:4;stroke-opacity:1;stroke-dasharray:none"
       d="m 91.347876,1031.8687 -1.476566,-5.0363"
       id="path4016"
       inkscape:connector-curvature="0"
       sodipodi:nodetypes="cc" />
  </g>
</svg>
