<?xml version="1.0" encoding="UTF-8" standalone="no"?>
<!-- Created with Inkscape (http://www.inkscape.org/) -->

<svg
   xmlns:dc="http://purl.org/dc/elements/1.1/"
   xmlns:cc="http://creativecommons.org/ns#"
   xmlns:rdf="http://www.w3.org/1999/02/22-rdf-syntax-ns#"
   xmlns:svg="http://www.w3.org/2000/svg"
   xmlns="http://www.w3.org/2000/svg"
   xmlns:xlink="http://www.w3.org/1999/xlink"
   xmlns:sodipodi="http://sodipodi.sourceforge.net/DTD/sodipodi-0.dtd"
   xmlns:inkscape="http://www.inkscape.org/namespaces/inkscape"
   width="500"
   height="300"
   id="svg2"
   version="1.1"
   inkscape:version="0.48.4 r9939"
   sodipodi:docname="qt.svg">
  <title
     id="title4018">Logo</title>
  <defs
     id="defs4">
    <linearGradient
       id="linearGradient4006"
       inkscape:collect="always">
      <stop
         id="stop4008"
         offset="0"
         style="stop-color:#08486d;stop-opacity:1" />
      <stop
         id="stop4010"
         offset="1"
         style="stop-color:#bce5ff;stop-opacity:1" />
    </linearGradient>
    <linearGradient
       id="linearGradient3980">
      <stop
         style="stop-color:#faebd6;stop-opacity:1;"
         offset="0"
         id="stop3982" />
      <stop
         id="stop3994"
         offset="0.27431589"
         style="stop-color:#f6d9c1;stop-opacity:1" />
      <stop
         id="stop3992"
         offset="0.47968742"
         style="stop-color:#fdf8e4;stop-opacity:1" />
      <stop
         id="stop3990"
         offset="0.63578653"
         style="stop-color:#fae6c8;stop-opacity:1" />
      <stop
         id="stop3988"
         offset="0.79457289"
         style="stop-color:#fdfbee;stop-opacity:1" />
      <stop
         style="stop-color:#fbf7e6;stop-opacity:1"
         offset="1"
         id="stop3984" />
    </linearGradient>
    <linearGradient
       inkscape:collect="always"
       id="linearGradient3957">
      <stop
         style="stop-color:#08486d;stop-opacity:1"
         offset="0"
         id="stop3959" />
      <stop
         style="stop-color:#bce5ff;stop-opacity:1"
         offset="1"
         id="stop3961" />
    </linearGradient>
    <linearGradient
       id="linearGradient3941">
      <stop
         style="stop-color:#640000;stop-opacity:1"
         offset="0"
         id="stop3943" />
      <stop
         id="stop3951"
         offset="0.3301037"
         style="stop-color:#830e0e;stop-opacity:1" />
      <stop
         id="stop3949"
         offset="0.83025163"
         style="stop-color:#ffeeee;stop-opacity:1" />
      <stop
         style="stop-color:#ffb2b2;stop-opacity:1"
         offset="1"
         id="stop3945" />
    </linearGradient>
    <radialGradient
       inkscape:collect="always"
       xlink:href="#linearGradient3957"
       id="radialGradient3965"
       cx="341.95941"
       cy="646.76099"
       fx="341.95941"
       fy="646.76099"
       r="55.048237"
       gradientTransform="matrix(-2.1869276,-0.03995771,0.02417623,-1.3231912,1075.3325,1503.2362)"
       gradientUnits="userSpaceOnUse" />
    <radialGradient
       inkscape:collect="always"
       xlink:href="#linearGradient4006"
       id="radialGradient3973"
       cx="341.43155"
       cy="632.44543"
       fx="341.43155"
       fy="632.44543"
       r="55.048237"
       gradientTransform="matrix(-0.00301384,1.3665773,-1.9164354,-0.00422651,1554.5015,170.55454)"
       gradientUnits="userSpaceOnUse" />
    <linearGradient
       inkscape:collect="always"
       xlink:href="#linearGradient3980"
       id="linearGradient3986"
       x1="490.27417"
       y1="429.3674"
       x2="494.71146"
       y2="876.25891"
       gradientUnits="userSpaceOnUse"
       gradientTransform="matrix(0.33364447,0,0,0.33372583,85.563761,718.05339)" />
  </defs>
  <sodipodi:namedview
     id="base"
     pagecolor="#ffffff"
     bordercolor="#666666"
     borderopacity="1.0"
     inkscape:pageopacity="0.0"
     inkscape:pageshadow="2"
     inkscape:zoom="1.4142136"
     inkscape:cx="213.09157"
     inkscape:cy="147.77042"
     inkscape:document-units="px"
     inkscape:current-layer="layer1"
     showgrid="false"
     borderlayer="true"
     inkscape:window-width="1634"
     inkscape:window-height="941"
     inkscape:window-x="133"
     inkscape:window-y="94"
     inkscape:window-maximized="0"
     inkscape:snap-page="true" />
  <metadata
     id="metadata7">
    <rdf:RDF>
      <cc:Work
         rdf:about="">
        <dc:format>image/svg+xml</dc:format>
        <dc:type
           rdf:resource="http://purl.org/dc/dcmitype/StillImage" />
        <dc:title>Logo</dc:title>
        <dc:creator>
          <cc:Agent>
            <dc:title>Okami</dc:title>
          </cc:Agent>
        </dc:creator>
        <dc:rights>
          <cc:Agent>
            <dc:title>Okami</dc:title>
          </cc:Agent>
        </dc:rights>
        <dc:publisher>
          <cc:Agent>
            <dc:title>Okami</dc:title>
          </cc:Agent>
        </dc:publisher>
        <cc:license
           rdf:resource="http://creativecommons.org/licenses/by-sa/3.0/" />
      </cc:Work>
      <cc:License
         rdf:about="http://creativecommons.org/licenses/by-sa/3.0/">
        <cc:permits
           rdf:resource="http://creativecommons.org/ns#Reproduction" />
        <cc:permits
           rdf:resource="http://creativecommons.org/ns#Distribution" />
        <cc:requires
           rdf:resource="http://creativecommons.org/ns#Notice" />
        <cc:requires
           rdf:resource="http://creativecommons.org/ns#Attribution" />
        <cc:permits
           rdf:resource="http://creativecommons.org/ns#DerivativeWorks" />
        <cc:requires
           rdf:resource="http://creativecommons.org/ns#ShareAlike" />
      </cc:License>
    </rdf:RDF>
  </metadata>
  <g
     inkscape:label="Layer 1"
     inkscape:groupmode="layer"
     id="layer1"
     transform="translate(0,-752.3622)"
     style="display:inline">
    <path
       style="fill:none;fill-opacity:1;stroke:#ffffff;stroke-width:15;stroke-linecap:round;stroke-linejoin:round;stroke-miterlimit:4;stroke-opacity:1;stroke-dasharray:none"
       d="M 398.90625 15.375 C 343.34946 18.39636 321.40993 52.44873 304.78125 47.53125 C 303.57907 47.175739 302.40031 46.796897 301.25 46.4375 C 300.92562 46.257374 300.60876 46.086376 300.28125 45.90625 L 301.03125 46.375 C 283.7463 40.958566 271.74405 35.332027 249.15625 35.53125 C 227.97913 35.718017 207.68718 48.692549 200.09375 52.03125 C 200.06114 52.050655 200.03258 52.074338 200 52.09375 C 199.35084 52.376096 198.76114 52.598004 198.3125 52.71875 C 182.11026 57.07937 118.83956 50.21801 102.28125 58.90625 C 109.96795 85.09995 130.1611 98.36773 148 113.25 C 136.85321 138.07962 125.15621 170.65231 125.78125 191.46875 C 126.26495 207.57797 154.51785 246.92637 183.6875 279.28125 C 169.21039 285.69904 154.54429 292.02911 149.25 303.1875 L 236.0625 303.53125 L 301.40625 310.71875 L 303.375 303.8125 L 304.8125 303.8125 C 303.99231 305.05331 303.20599 306.30267 302.4375 307.53125 L 308.625 308.9375 C 310.14952 307.32215 311.70988 305.60586 313.28125 303.84375 L 372.5 304.09375 C 363.19122 285.46525 348.05387 283.02735 333.625 278.625 C 355.06439 249.61203 374.68803 215.19762 375.625 196.71875 C 376.95843 170.42148 373.18156 133.79505 365.53125 105.53125 C 365.5263 105.52561 365.5362 105.50564 365.53125 105.5 C 365.36901 104.90095 365.19695 104.27883 365.03125 103.6875 C 375.56625 80.59699 396.39722 34.92046 398.90625 15.375 z "
       id="path3302"
       transform="translate(0,752.3622)" />
    <path
       style="fill:#3d3d3d;fill-opacity:1;stroke:#000000;stroke-width:0.66737038;stroke-linecap:butt;stroke-linejoin:miter;stroke-miterlimit:4;stroke-opacity:1;stroke-dasharray:none"
       d="m 185.12296,1031.0131 -28.31068,-36.10497 -18.87377,-26.19376 -10.14467,-20.53025 0.23592,-12.97889 15.09904,-46.25204 42.93785,-55.21927 54.26212,-25.01386 69.36114,33.50913 56.1495,65.60239 6.13398,43.89224 -6.14827,22.29732 -20.68596,35.70866 -14.84717,20.1905 c 15.38457,5.1875 32.17741,6.4621 42.20602,26.5311 l -223.23524,-0.8966 c 5.46956,-11.5278 20.92655,-17.8997 35.86019,-24.5417 z"
       id="path3998"
       inkscape:connector-curvature="0"
       sodipodi:nodetypes="ccccccccccccccccc" />
    <path
       style="fill:#edc88a;fill-opacity:1;stroke:#000000;stroke-width:0.66737038;stroke-linecap:butt;stroke-linejoin:miter;stroke-miterlimit:4;stroke-opacity:1;stroke-dasharray:none"
       d="m 174.50077,929.95416 c -8.93947,23.5447 -13.37608,59.03259 4.75338,94.97074 -3.3933,-19.2202 -11.47832,-43.76118 4.7134,-83.7275 z"
       id="path3867"
       inkscape:connector-curvature="0"
       sodipodi:nodetypes="cccc" />
    <path
       sodipodi:nodetypes="cccc"
       inkscape:connector-curvature="0"
       id="path3841"
       d="m 193.23799,901.32388 c -12.80766,13.36209 -20.76345,71.43852 8.8005,124.37402 -5.10273,-23.1588 -17.45638,-53.87353 14.09115,-112.44258 z"
       style="fill:#e8c488;fill-opacity:1;stroke:#000000;stroke-width:0.66737038;stroke-linecap:butt;stroke-linejoin:miter;stroke-miterlimit:4;stroke-opacity:1;stroke-dasharray:none" />
    <path
       sodipodi:nodetypes="cccc"
       inkscape:connector-curvature="0"
       id="path3845"
       d="m 200.64051,934.85867 c -10.86962,14.98184 -18.43037,60.03316 19.7151,98.30253 -8.20749,-22.2483 -27.12919,-40.47532 -3.84757,-102.7952 z"
       style="fill:#e8ce91;fill-opacity:1;stroke:#000000;stroke-width:0.66737038;stroke-linecap:butt;stroke-linejoin:miter;stroke-miterlimit:4;stroke-opacity:1;stroke-dasharray:none" />
    <path
       style="fill:#fbe8bf;fill-opacity:1;stroke:#000000;stroke-width:0.66737038;stroke-linecap:butt;stroke-linejoin:miter;stroke-miterlimit:4;stroke-opacity:1;stroke-dasharray:none"
       d="m 218.45499,925.67312 c -9.21121,25.02356 -29.92361,70.27824 19.87951,107.28208 -10.04397,-23.922 -17.0772,-56.75126 -10.38743,-99.6503 z"
       id="path3847"
       inkscape:connector-curvature="0"
       sodipodi:nodetypes="cccc" />
    <path
       sodipodi:nodetypes="cccc"
       inkscape:connector-curvature="0"
       id="path3849"
       d="m 300.17441,904.81885 c 14.84101,11.05887 26.10275,65.81179 5.70051,122.90965 1.20245,-23.6841 8.30635,-56.01965 -32.49266,-108.56198 z"
       style="fill:#eabe75;fill-opacity:1;stroke:#000000;stroke-width:0.66737038;stroke-linecap:butt;stroke-linejoin:miter;stroke-miterlimit:4;stroke-opacity:1;stroke-dasharray:none" />
    <path
       style="fill:#efc382;fill-opacity:1;stroke:#000000;stroke-width:0.66737038;stroke-linecap:butt;stroke-linejoin:miter;stroke-miterlimit:4;stroke-opacity:1;stroke-dasharray:none"
       d="m 274.7221,910.77824 c 14.84102,11.05886 45.12048,60.8059 24.71824,117.90386 1.20246,-23.6842 8.30637,-56.01975 -32.49265,-108.56208 z"
       id="path3851"
       inkscape:connector-curvature="0"
       sodipodi:nodetypes="cccc" />
    <path
       sodipodi:nodetypes="cccc"
       inkscape:connector-curvature="0"
       id="path3853"
       d="m 279.96131,928.04989 c 13.15374,13.02137 36.19977,66.50674 8.03449,120.19971 4.49351,-23.2846 16.03729,-54.31296 -17.03563,-112.03397 z"
       style="fill:#edce93;fill-opacity:1;stroke:#000000;stroke-width:0.66737038;stroke-linecap:butt;stroke-linejoin:miter;stroke-miterlimit:4;stroke-opacity:1;stroke-dasharray:none" />
    <path
       style="fill:#fbe8bf;fill-opacity:1;stroke:#000000;stroke-width:0.66737038;stroke-linecap:butt;stroke-linejoin:miter;stroke-miterlimit:4;stroke-opacity:1;stroke-dasharray:none"
       d="m 209.87741,905.4127 c -10.86963,14.98183 -24.94337,71.49638 11.55062,119.9128 -8.20748,-22.2482 -24.62685,-50.99454 -1.34523,-113.31443 z"
       id="path3843"
       inkscape:connector-curvature="0"
       sodipodi:nodetypes="cccc" />
    <path
       style="fill:#f6cfbe;fill-opacity:1;stroke:#000000;stroke-width:0.66737038;stroke-linecap:butt;stroke-linejoin:miter;stroke-miterlimit:4;stroke-opacity:1;stroke-dasharray:none"
       d="m 228.69724,999.38431 c 2.27715,21.02599 -7.49586,28.93549 -19.65332,28.61819 l 7.90483,25.793 84.44543,9.2919 8.50303,-29.9219 c -19.33277,-5.2484 -18.64692,-15.2732 -16.01409,-52.65214 z"
       id="path3996"
       inkscape:connector-curvature="0"
       sodipodi:nodetypes="ccccccc" />
    <path
       sodipodi:nodetypes="cccc"
       inkscape:connector-curvature="0"
       id="path3839"
       d="m 181.49573,924.89426 c -13.40462,21.3198 -23.58097,49.563 -12.89063,88.37094 0.46156,-19.51227 -3.7956,-39.49254 19.9556,-75.48158 z"
       style="fill:#f8ecc6;fill-opacity:1;stroke:#000000;stroke-width:0.66737038;stroke-linecap:butt;stroke-linejoin:miter;stroke-miterlimit:4;stroke-opacity:1;stroke-dasharray:none" />
    <path
       sodipodi:nodetypes="cccc"
       inkscape:connector-curvature="0"
       id="path3871"
       d="m 173.81698,926.60293 c -7.01594,24.18797 -6.493,72.59338 14.46942,106.95557 -4.64299,-20.8865 -12.06242,-65.25851 -0.11798,-99.54497 z"
       style="fill:#f4efc6;fill-opacity:1;stroke:#000000;stroke-width:0.66737038;stroke-linecap:butt;stroke-linejoin:miter;stroke-miterlimit:4;stroke-opacity:1;stroke-dasharray:none" />
    <path
       sodipodi:nodetypes="cccc"
       inkscape:connector-curvature="0"
       id="path4000"
       d="m 206.90631,869.28806 c -17.12467,7.01886 -58.82342,47.66893 -53.26131,108.04825 4.72501,-23.23882 5.8855,-56.32557 58.46828,-97.06582 z"
       style="fill:#f2ce8f;fill-opacity:1;stroke:#000000;stroke-width:0.66737038;stroke-linecap:butt;stroke-linejoin:miter;stroke-miterlimit:4;stroke-opacity:1;stroke-dasharray:none" />
    <path
       style="fill:url(#linearGradient3986);fill-opacity:1;stroke:#000000;stroke-width:0.66737038;stroke-linecap:butt;stroke-linejoin:miter;stroke-miterlimit:4;stroke-opacity:1;stroke-dasharray:none"
       d="m 180.28663,928.12619 c 3.64456,17.29503 10.5481,41.61505 19.87663,53.02121 17.31947,21.1768 39.13447,30.4625 49.50748,30.3056 15.56737,-0.2358 59.26322,-30.27283 68.31914,-58.51624 10.27303,-32.03929 3.93715,-54.79853 7.32126,-81.60783 l -137.27086,-10.01178 -14.06073,62.21604 z"
       id="path3863"
       inkscape:connector-curvature="0"
       sodipodi:nodetypes="cssscccc" />
    <path
       style="fill:#f6dcb1;fill-opacity:1;stroke:#000000;stroke-width:0.66737038;stroke-linecap:butt;stroke-linejoin:miter;stroke-miterlimit:4;stroke-opacity:1;stroke-dasharray:none"
       d="m 300.59011,885.23761 c 16.93992,8.69036 64.10463,72.889 49.2251,109.94675 1.1051,-14.47599 -1.95012,-36.84615 -54.83505,-99.1647 z"
       id="path3857"
       inkscape:connector-curvature="0"
       sodipodi:nodetypes="cccc" />
    <path
       style="fill:#ecd5ab;fill-opacity:1;stroke:#000000;stroke-width:0.66737038;stroke-linecap:butt;stroke-linejoin:miter;stroke-miterlimit:4;stroke-opacity:1;stroke-dasharray:none"
       d="m 191.85335,830.08995 40.03734,56.97177 89.60737,26.45969 -1.19159,-80.80933 -98.42511,-21.45381 z"
       id="path3869"
       inkscape:connector-curvature="0" />
    <path
       sodipodi:nodetypes="cccc"
       inkscape:connector-curvature="0"
       id="path3855"
       d="m 302.39372,836.48401 c 57.19958,26.75334 56.82665,109.99304 25.37198,151.40711 6.38641,-10.66367 28.67285,-91.91536 -36.07023,-150.56505 z"
       style="fill:#dbb779;fill-opacity:1;stroke:#000000;stroke-width:0.66737038;stroke-linecap:butt;stroke-linejoin:miter;stroke-miterlimit:4;stroke-opacity:1;stroke-dasharray:none" />
    <path
       sodipodi:nodetypes="cccc"
       inkscape:connector-curvature="0"
       id="path3859"
       d="m 327.35953,907.34576 c 11.12663,14.79185 30.65647,69.87499 -4.99621,118.91454 7.82215,-22.3867 23.74281,-51.41231 -0.61124,-113.32078 z"
       style="fill:#f0dab3;fill-opacity:1;stroke:#000000;stroke-width:0.66737038;stroke-linecap:butt;stroke-linejoin:miter;stroke-miterlimit:4;stroke-opacity:1;stroke-dasharray:none" />
    <path
       sodipodi:nodetypes="cccc"
       inkscape:connector-curvature="0"
       id="path3803"
       d="m 186.96089,826.10844 c -47.82289,28.84278 -31.97304,155.8952 5.8578,187.78676 -10.46267,-21.52187 -31.04774,-68.82063 14.92143,-159.52893 z"
       style="fill:#f2ce85;fill-opacity:1;stroke:#000000;stroke-width:0.66737038;stroke-linecap:butt;stroke-linejoin:miter;stroke-miterlimit:4;stroke-opacity:1;stroke-dasharray:none" />
    <path
       style="fill:#ffffff;stroke:none"
       d="m 225.43196,932.78819 c 0,9.58841 -8.14829,17.36137 -18.19973,17.36137 -10.05142,0 -16.11395,-8.00268 -18.19971,-17.36137 -2.94496,-13.21387 7.24157,-18.47761 18.19971,-17.36139 9.99972,1.01861 18.19973,7.77296 18.19973,17.36139 z"
       id="path3774"
       inkscape:connector-curvature="0"
       sodipodi:nodetypes="sssss" />
    <path
       sodipodi:nodetypes="cccc"
       inkscape:connector-curvature="0"
       id="path3801"
       d="m 177.17699,826.62678 c -23.68321,70.617 -11.6223,101.29245 23.71013,121.65731 -7.124,-8.75011 -37.78269,-50.58042 -7.75885,-118.74361 z"
       style="fill:#f8e2b0;fill-opacity:1;stroke:#000000;stroke-width:0.66737038;stroke-linecap:butt;stroke-linejoin:miter;stroke-miterlimit:4;stroke-opacity:1;stroke-dasharray:none" />
    <path
       style="fill:#ffffff;stroke:none"
       d="m 300.69959,931.41271 c -2.49622,8.96805 -9.26893,16.02977 -19.32035,16.02977 -10.05143,0 -18.19972,-7.54655 -18.19972,-16.8557 0,-9.30915 8.22956,-15.57977 18.19972,-16.8557 12.60489,-1.61311 22.24623,7.16995 19.32035,17.68163 z"
       id="path3776"
       inkscape:connector-curvature="0"
       sodipodi:nodetypes="sssss" />
    <path
       sodipodi:nodetypes="cccc"
       inkscape:connector-curvature="0"
       id="path3788"
       d="m 192.80663,832.23534 c 6.41599,23.08693 20.41358,79.71201 73.64008,89.15246 -10.00328,-4.11361 -42.63458,-32.75157 -58.8644,-98.92587 z"
       style="fill:#fdeec8;fill-opacity:1;stroke:#000000;stroke-width:0.66737038;stroke-linecap:butt;stroke-linejoin:miter;stroke-miterlimit:4;stroke-opacity:1;stroke-dasharray:none" />
    <path
       style="fill:#fce6bd;fill-opacity:1;stroke:#000000;stroke-width:0.66737038;stroke-linecap:butt;stroke-linejoin:miter;stroke-miterlimit:4;stroke-opacity:1;stroke-dasharray:none"
       d="m 322.78598,904.97397 c 11.35253,15.24375 27.24047,92.97364 -9.47873,120.09453 7.82217,-22.3867 23.74281,-51.41239 -0.61123,-113.32086 z"
       id="path3861"
       inkscape:connector-curvature="0"
       sodipodi:nodetypes="cccc" />
    <path
       style="fill:#fddba3;fill-opacity:1;stroke:#000000;stroke-width:0.66737038;stroke-linecap:butt;stroke-linejoin:miter;stroke-miterlimit:4;stroke-opacity:1;stroke-dasharray:none"
       d="m 283.70404,873.02439 c 16.9612,3.37647 67.77877,75.39852 39.81712,136.14671 0.59655,-24.20436 5.18851,-73.29601 -36.92066,-127.24439 z"
       id="path3837"
       inkscape:connector-curvature="0"
       sodipodi:nodetypes="cccc" />
    <path
       style="fill:#eed7a5;fill-opacity:1;stroke:#000000;stroke-width:0.66737038;stroke-linecap:butt;stroke-linejoin:miter;stroke-miterlimit:4;stroke-opacity:1;stroke-dasharray:none"
       d="m 317.45497,838.74235 c 35.46806,48.08915 19.409,162.93035 -20.8718,186.11805 10.5872,-21.5529 42.22911,-103.43972 3.19071,-181.22102 z"
       id="path3809"
       inkscape:connector-curvature="0"
       sodipodi:nodetypes="cccc" />
    <path
       sodipodi:nodetypes="cccc"
       inkscape:connector-curvature="0"
       id="path3807"
       d="m 212.11034,815.07228 c 62.97364,52.15281 58.85869,104.47641 120.58865,101.30963 C 292.93663,894.8506 305.11242,858.32796 237.7533,809.92338 z"
       style="fill:#f1d099;fill-opacity:1;stroke:#000000;stroke-width:0.66737038;stroke-linecap:butt;stroke-linejoin:miter;stroke-miterlimit:4;stroke-opacity:1;stroke-dasharray:none" />
    <path
       sodipodi:nodetypes="cccc"
       inkscape:connector-curvature="0"
       id="path3835"
       d="m 194.95148,832.71208 c 7.09693,17.16871 60.06393,70.91774 118.68211,60.5474 -23.45273,-5.99271 -67.23226,-10.61504 -107.71952,-65.79166 z"
       style="fill:#f2bf88;fill-opacity:1;stroke:#000000;stroke-width:0.66737038;stroke-linecap:butt;stroke-linejoin:miter;stroke-miterlimit:4;stroke-opacity:1;stroke-dasharray:none" />
    <path
       style="fill:#f2ce8f;fill-opacity:1;stroke:#000000;stroke-width:0.66737038;stroke-linecap:butt;stroke-linejoin:miter;stroke-miterlimit:4;stroke-opacity:1;stroke-dasharray:none"
       d="m 204.48418,826.99107 c 7.07332,17.1057 47.85011,58.681 108.19614,52.91938 -23.24855,-4.64987 -56.33086,-5.70203 -97.23354,-58.16366 z"
       id="path3784"
       inkscape:connector-curvature="0"
       sodipodi:nodetypes="cccc" />
    <path
       style="fill:#f7e9c3;fill-opacity:1;stroke:#000000;stroke-width:0.66737038;stroke-linecap:butt;stroke-linejoin:miter;stroke-miterlimit:4;stroke-opacity:1;stroke-dasharray:none"
       d="m 187.32532,836.52609 c 9.45099,62.44808 89.36836,85.66626 137.98582,67.22192 -12.03336,3.10613 -88.41099,1.008 -126.30826,-77.71045 z"
       id="path3786"
       inkscape:connector-curvature="0"
       sodipodi:nodetypes="cccc" />
    <path
       style="fill:#5d5d5d;fill-opacity:1;stroke:#000000;stroke-width:0.66737038;stroke-linecap:butt;stroke-linejoin:miter;stroke-miterlimit:4;stroke-opacity:1;stroke-dasharray:none"
       d="m 302.43266,1059.884 c 22.36907,-35.7613 67.84345,-76.90732 66.25225,-111.55975 -2.55479,-55.63797 -97.88381,-130.17341 -132.95718,-126.28123 -58.0949,6.44692 -103.46509,81.30431 -105.36029,122.00039 -0.84892,18.22927 49.0254,79.27349 82.17163,110.95739 l -5.62792,0.6743 c -35.17721,-33.4773 -80.52269,-91.40796 -81.13658,-111.85312 -0.62504,-20.81644 11.08158,-53.3675 22.22837,-78.19712 -17.8389,-14.88227 -38.03639,-28.15098 -45.72309,-54.34468 16.55831,-8.68824 79.82278,-1.84211 96.02502,-6.20273 5.64236,-1.51857 27.7586,-16.97808 50.86477,-17.18186 24.18271,-0.21329 36.22206,6.25633 55.61232,11.99047 16.62868,4.91748 38.56664,-29.11331 94.12343,-32.13467 -2.50903,19.54546 -23.33003,65.21901 -33.86503,88.30952 7.98482,28.49493 11.9588,66.15566 10.59665,93.01936 -1.30392,25.71572 -38.78395,82.32823 -67.0081,112.23393 z"
       id="path2996"
       inkscape:connector-curvature="0"
       sodipodi:nodetypes="csssccsccsssccscc" />
    <path
       style="fill:none;stroke:#000000;stroke-width:0.66737038;stroke-linecap:butt;stroke-linejoin:miter;stroke-miterlimit:4;stroke-opacity:1;stroke-dasharray:none"
       d="m 365.55294,857.9387 c -3.97087,-4.52904 -8.7658,-9.19423 -13.64979,-16.77142"
       id="path3766"
       inkscape:connector-curvature="0"
       sodipodi:nodetypes="cc" />
    <path
       style="fill:none;stroke:#000000;stroke-width:0.66737038;stroke-linecap:butt;stroke-linejoin:miter;stroke-miterlimit:4;stroke-opacity:1;stroke-dasharray:none"
       d="m 300.28781,798.2668 c 10.1854,5.60182 18.8421,11.20367 26.81071,16.80548"
       id="path3768"
       inkscape:connector-curvature="0"
       sodipodi:nodetypes="cc" />
    <path
       style="fill:none;stroke:#000000;stroke-width:0.66737038;stroke-linecap:butt;stroke-linejoin:miter;stroke-miterlimit:4;stroke-opacity:1;stroke-dasharray:none"
       d="M 200.19448,804.34539 C 188.55,811.26681 178.66499,818.65202 171.2174,826.41417"
       id="path3770"
       inkscape:connector-curvature="0"
       sodipodi:nodetypes="cc" />
    <path
       style="fill:none;stroke:#000000;stroke-width:0.66737038;stroke-linecap:butt;stroke-linejoin:miter;stroke-miterlimit:4;stroke-opacity:1;stroke-dasharray:none"
       d="m 148.08316,865.69233 c 3.23291,-8.08325 5.97769,-15.81558 16.17753,-28.90753"
       id="path3772"
       inkscape:connector-curvature="0"
       sodipodi:nodetypes="cc" />
    <path
       style="fill:#000000;stroke:#000000;stroke-width:0.33368519px;stroke-linecap:butt;stroke-linejoin:miter;stroke-opacity:1"
       d="m 244.26361,953.59481 c -0.40139,0.92296 -1.29273,1.6009 0,3.37114 0.64816,-1.38305 0.46915,-2.43514 0,-3.37114 z"
       id="path3873"
       inkscape:connector-curvature="0"
       sodipodi:nodetypes="ccc" />
    <path
       sodipodi:type="arc"
       style="fill:url(#radialGradient3965);fill-opacity:1;stroke:#460000;stroke-width:2.39957905;stroke-miterlimit:4;stroke-opacity:1;stroke-dasharray:none"
       id="path3898"
       sodipodi:cx="341.43155"
       sodipodi:cy="660.08368"
       sodipodi:rx="54.548237"
       sodipodi:ry="50.507626"
       d="m 395.97979,660.08368 a 54.548237,50.507626 0 1 1 -109.09648,0 54.548237,50.507626 0 1 1 109.09648,0 z"
       transform="matrix(0.27808583,0,0,0.27815366,184.23944,745.49224)" />
    <path
       transform="matrix(0.28558035,0,0,0.28565002,111.08387,742.35214)"
       d="m 395.97979,660.08368 a 54.548237,50.507626 0 1 1 -109.09648,0 54.548237,50.507626 0 1 1 109.09648,0 z"
       sodipodi:ry="50.507626"
       sodipodi:rx="54.548237"
       sodipodi:cy="660.08368"
       sodipodi:cx="341.43155"
       id="path3900"
       style="fill:url(#radialGradient3973);fill-opacity:1;stroke:#460000;stroke-width:2.3366065;stroke-miterlimit:4;stroke-opacity:1;stroke-dasharray:none"
       sodipodi:type="arc" />
    <path
       style="font-size:medium;font-style:normal;font-variant:normal;font-weight:normal;font-stretch:normal;text-indent:0;text-align:start;text-decoration:none;line-height:normal;letter-spacing:normal;word-spacing:normal;text-transform:none;direction:ltr;block-progression:tb;writing-mode:lr-tb;text-anchor:start;baseline-shift:baseline;color:#000000;fill:#460000;fill-opacity:1;stroke:none;stroke-width:4;marker:none;visibility:visible;display:inline;overflow:visible;enable-background:accumulate;font-family:Sans;-inkscape-font-specification:Sans"
       d="m 295.37274,941.68801 c 8.85495,-9.18457 8.06144,-20.77713 3.30437,-25.30084 -7.48747,-7.12017 -25.5376,-4.78847 -33.81168,5.71971 12.63267,-10.49963 25.88557,-9.86386 31.54831,-4.23889 5.04469,5.01106 5.74685,12.78654 -1.041,23.82002 z"
       id="path3902"
       inkscape:connector-curvature="0"
       sodipodi:nodetypes="cscsc" />
    <path
       style="fill:#460000;fill-opacity:1;stroke:none"
       d="m 305.13845,918.01266 c -0.24963,1.5213 -1.75967,2.7277 -4.62027,2.25479 1.21527,0.65545 2.63353,1.23706 5.15452,-0.0986 -0.6267,1.8481 -2.29056,2.35174 -4.60875,2.5311 1.46757,0.69449 3.64736,0.9534 5.10784,-0.1475 -0.55692,2.20227 -3.23671,2.33252 -4.7812,2.00597 l -1.63292,-6.60172 c 1.81774,1.40938 3.26289,1.28787 5.38078,0.0559 z"
       id="path3915"
       inkscape:connector-curvature="0"
       sodipodi:nodetypes="cccccccc" />
    <path
       sodipodi:nodetypes="cscsc"
       inkscape:connector-curvature="0"
       id="path3925"
       d="m 193.65357,943.69036 c -8.85496,-9.18455 -8.06145,-20.77714 -3.30438,-25.30083 7.48748,-7.12017 25.53761,-4.78847 33.81168,5.7197 -12.63267,-10.49963 -25.88557,-9.86386 -31.5483,-4.23888 -5.0447,5.01106 -5.74685,12.78654 1.041,23.82001 z"
       style="font-size:medium;font-style:normal;font-variant:normal;font-weight:normal;font-stretch:normal;text-indent:0;text-align:start;text-decoration:none;line-height:normal;letter-spacing:normal;word-spacing:normal;text-transform:none;direction:ltr;block-progression:tb;writing-mode:lr-tb;text-anchor:start;baseline-shift:baseline;color:#000000;fill:#460000;fill-opacity:1;stroke:none;stroke-width:4;marker:none;visibility:visible;display:inline;overflow:visible;enable-background:accumulate;font-family:Sans;-inkscape-font-specification:Sans" />
    <path
       sodipodi:nodetypes="cccccccc"
       inkscape:connector-curvature="0"
       id="path3927"
       d="m 183.88786,920.01502 c 0.24962,1.52129 1.75966,2.72771 4.62026,2.25479 -1.21527,0.65545 -2.63354,1.23705 -5.15452,-0.0985 0.6267,1.84808 2.29056,2.35172 4.60876,2.53108 -1.46757,0.69449 -3.64737,0.95341 -5.10784,-0.14749 0.55692,2.20226 3.2367,2.33253 4.78119,2.00598 l 1.63292,-6.60175 c -1.81774,1.40939 -3.26288,1.28788 -5.38077,0.0559 z"
       style="fill:#460000;fill-opacity:1;stroke:none" />
    <path
       style="fill:#460000;fill-opacity:1;stroke:none"
       d="m 225.77539,921.48935 c -4.89141,-4.91422 -9.87433,-9.13053 -19.76352,-9.7381 7.19853,1.66417 14.00844,4.63428 19.76352,9.7381 z"
       id="path3929"
       inkscape:connector-curvature="0"
       sodipodi:nodetypes="ccc" />
    <path
       sodipodi:nodetypes="ccc"
       inkscape:connector-curvature="0"
       id="path3931"
       d="m 262.54597,920.12765 c 4.73135,-5.09282 9.57851,-9.48955 19.46617,-10.4399 -7.15524,1.91609 -13.87598,5.12728 -19.46617,10.4399 z"
       style="fill:#460000;fill-opacity:1;stroke:none" />
    <path
       style="fill:#460000;fill-opacity:1;stroke:none"
       d="m 188.96891,899.24213 c 11.4885,-2.03103 22.69705,-1.29292 33.6257,2.21436 -11.64526,-1.5779 -22.82665,-2.26376 -33.6257,-2.21436 z"
       id="path3933"
       inkscape:connector-curvature="0"
       sodipodi:nodetypes="ccc" />
    <path
       sodipodi:nodetypes="ccc"
       inkscape:connector-curvature="0"
       id="path3935"
       d="m 265.8696,900.45268 c 10.97808,-3.94947 22.14952,-5.1224 33.51438,-3.51876 -11.74416,0.41933 -22.87997,1.63915 -33.51438,3.51876 z"
       style="fill:#460000;fill-opacity:1;stroke:none" />
    <path
       sodipodi:type="arc"
       style="fill:#320000;fill-opacity:1;stroke:none"
       id="path3937"
       sodipodi:cx="341.43155"
       sodipodi:cy="660.08368"
       sodipodi:rx="12.309767"
       sodipodi:ry="50.507626"
       d="m 353.74132,660.08368 a 12.309767,50.507626 0 1 1 -24.61954,0 12.309767,50.507626 0 1 1 24.61954,0 z"
       transform="matrix(0.15802947,0,0,0.15806803,154.63377,826.56693)" />
    <path
       transform="matrix(0.15707602,0,0,0.15711435,225.55601,825.38832)"
       d="m 353.48493,660.08368 a 12.053377,50.507626 0 1 1 -24.10676,0 12.053377,50.507626 0 1 1 24.10676,0 z"
       sodipodi:ry="50.507626"
       sodipodi:rx="12.053377"
       sodipodi:cy="660.08368"
       sodipodi:cx="341.43155"
       id="path3939"
       style="fill:#320000;fill-opacity:1;stroke:none"
       sodipodi:type="arc" />
    <path
       style="fill:#e4a5a5;fill-opacity:1;stroke:#000000;stroke-width:0.75731117;stroke-linecap:butt;stroke-miterlimit:4;stroke-opacity:1"
       d="m 258.74692,992.65498 c 0,4.21433 -5.06811,6.57475 -10.75555,6.57475 -5.68743,0 -11.3251,-2.41522 -11.3251,-6.62955 0,-4.21433 5.51971,-7.92395 11.20714,-7.92395 5.68745,0 10.87351,3.76443 10.87351,7.97875 z"
       id="path3975"
       inkscape:connector-curvature="0"
       sodipodi:nodetypes="sssss" />
    <path
       style="fill:#ffffff;stroke:#000000;stroke-width:0.66737038;stroke-linecap:butt;stroke-linejoin:miter;stroke-miterlimit:4;stroke-opacity:1;stroke-dasharray:none"
       d="m 240.04263,987.22277 2.43032,2.43216 0.007,-3.67957 c -1.07117,0.27468 -1.79476,0.80112 -2.43717,1.24741 z"
       id="path3978"
       inkscape:connector-curvature="0"
       sodipodi:nodetypes="cccc" />
    <path
       style="fill:none;stroke:#000000;stroke-width:0.66737038;stroke-linecap:butt;stroke-linejoin:miter;stroke-miterlimit:4;stroke-opacity:1;stroke-dasharray:none"
       d="m 292.81596,1014.0765 c 0.0837,6.865 0.71632,13.3857 1.44242,19.0141"
       id="path4002"
       inkscape:connector-curvature="0"
       sodipodi:nodetypes="cc" />
    <path
       style="fill:none;stroke:#000000;stroke-width:0.66737038;stroke-linecap:butt;stroke-linejoin:miter;stroke-miterlimit:4;stroke-opacity:1;stroke-dasharray:none"
       d="m 309.63093,1033.9038 1.59248,-5.5455"
       id="path4004"
       inkscape:connector-curvature="0"
       sodipodi:nodetypes="cc" />
    <path
       style="fill:none;stroke:#000000;stroke-width:0.66737038;stroke-linecap:butt;stroke-linejoin:miter;stroke-miterlimit:4;stroke-opacity:1;stroke-dasharray:none"
       d="m 209.12804,1028.1854 -1.59247,-5.4316"
       id="path4016"
       inkscape:connector-curvature="0"
       sodipodi:nodetypes="cc" />
  </g>
</svg>
